<svg width="208" height="34" viewBox="0 0 208 34" fill="none" xmlns="http://www.w3.org/2000/svg">
<g clip-path="url(#clip0_1_2)">
<path d="M20.4255 19.6684L0 33.9177V19.5862L20.4255 5.33691V19.6684Z" fill="url(#paint0_linear_1_2)"/>
<path d="M40.8529 19.7509L20.4255 34.0002V19.6687L40.8529 5.41943V19.7509Z" fill="url(#paint1_linear_1_2)"/>
<path d="M40.8529 34.0002V24.4917L34.5223 28.9077L40.8529 34.0002Z" fill="url(#paint2_linear_1_2)"/>
<path d="M53.3999 5.57764L62.2246 23.6525L71.0171 5.57764H77.1858V33.7571H72.2927L72.2527 13.63L63.9496 30.8603H60.4597L52.1566 13.63V33.7571H47.1835V5.57764H53.3999Z" fill="#333F47"/>
<path d="M89.5005 5.57764V33.7571H84.1257V5.57764H89.5005Z" fill="#333F47"/>
<path d="M105.627 10.2478C103.1 10.2478 101.455 11.1746 101.455 12.9058C101.455 18.6212 116.537 15.5218 116.497 25.6264C116.497 30.9004 111.927 33.9597 105.747 33.9597C101.379 33.9324 97.1656 32.3321 93.8739 29.4501L96.1206 24.9022C99.005 27.4781 102.813 29.045 105.827 29.045C108.841 29.045 110.64 27.9195 110.64 25.9455C110.64 20.0696 95.5589 23.4098 95.5589 13.3854C95.5589 8.47451 99.7704 5.33496 106.069 5.33496C109.798 5.33496 113.528 6.54263 116.217 8.314L114.046 12.9937C111.042 11.1746 107.792 10.2478 105.627 10.2478Z" fill="#333F47"/>
<path d="M134.306 10.208C129.011 10.208 124.88 14.3145 124.88 19.5483C124.88 24.8204 129.011 28.9268 134.306 28.9268C136.994 28.9268 139.843 27.679 141.922 25.6268L145.092 29.1695C142.204 32.1084 138.072 34.0002 134.02 34.0002C125.757 34.0002 119.379 27.7593 119.379 19.6286C119.379 11.5762 125.837 5.41748 134.23 5.41748C138.241 5.41748 142.333 7.14872 145.059 9.92521L141.927 13.8711C139.923 11.6163 137.084 10.208 134.306 10.208Z" fill="#333F47"/>
<path d="M176.665 19.6687C176.665 27.7593 170.167 34.0002 161.704 34.0002C153.241 34.0002 146.743 27.7593 146.743 19.6687C146.743 11.5361 153.241 5.41748 161.704 5.41748C170.167 5.41748 176.665 11.5762 176.665 19.6687ZM152.237 19.6687C152.237 24.9828 156.616 29.1695 161.784 29.1695C164.25 29.1198 166.599 28.1013 168.326 26.3329C170.053 24.5644 171.021 22.1869 171.021 19.7107C171.021 17.2345 170.053 14.857 168.326 13.0886C166.599 11.3201 164.25 10.3017 161.784 10.252C156.571 10.2481 152.237 14.3546 152.237 19.6687Z" fill="#333F47"/>
<path d="M200.533 5.57764V10.3682H191.788V33.7571H186.373V10.3682H177.638V5.57764H200.533Z" fill="#333F47"/>
<path d="M20.4255 19.6684L0 33.9177V19.5862L20.4255 5.33691V19.6684Z" fill="#5625C9"/>
<path d="M40.8529 19.7509L20.4255 34.0002V19.6687L40.8529 5.41943V19.7509Z" fill="#5625C9"/>
<path d="M40.8529 34.0002V24.4917L34.5223 28.9077L40.8529 34.0002Z" fill="#33CB33"/>
<path d="M204.954 6.11477C204.351 6.11477 203.762 5.93545 203.261 5.5995C202.76 5.26356 202.37 4.78606 202.139 4.22739C201.909 3.66873 201.848 3.05399 201.966 2.46092C202.083 1.86784 202.374 1.32307 202.8 0.895488C203.226 0.467905 203.768 0.176718 204.359 0.0587481C204.95 -0.0592217 205.563 0.00132471 206.119 0.232731C206.676 0.464137 207.152 0.856009 207.487 1.35879C207.821 1.86158 208 2.45269 208 3.05738C208 3.86825 207.679 4.64591 207.108 5.21928C206.536 5.79265 205.762 6.11477 204.954 6.11477ZM204.954 0.254146C204.401 0.254146 203.861 0.418553 203.402 0.726577C202.943 1.0346 202.585 1.47241 202.373 1.98463C202.162 2.49686 202.106 3.06049 202.214 3.60427C202.322 4.14804 202.588 4.64753 202.979 5.03957C203.369 5.43161 203.867 5.69859 204.409 5.80676C204.951 5.91492 205.512 5.85941 206.023 5.64724C206.533 5.43507 206.969 5.07577 207.276 4.61478C207.583 4.15379 207.747 3.61181 207.747 3.05738C207.746 2.31423 207.451 1.6018 206.928 1.07631C206.404 0.550822 205.694 0.255157 204.954 0.254146Z" fill="#333F47"/>
<path d="M203.688 4.59575V1.46575H205.02C205.265 1.45457 205.51 1.48295 205.746 1.54983C205.897 1.6057 206.025 1.71145 206.109 1.84984C206.201 1.99746 206.248 2.1688 206.245 2.34284C206.252 2.5563 206.179 2.76474 206.039 2.92565C205.874 3.09197 205.655 3.1942 205.422 3.21419C205.546 3.28576 205.66 3.37454 205.759 3.47789C205.893 3.63618 206.013 3.8063 206.117 3.98618L206.498 4.59575H205.736L205.281 3.91548C205.181 3.75433 205.07 3.60044 204.948 3.45496C204.896 3.39661 204.831 3.35198 204.758 3.32502C204.654 3.29583 204.547 3.28357 204.44 3.28872H204.312V4.59575H203.688ZM204.318 2.78998H204.784C204.975 2.79976 205.167 2.78693 205.355 2.75177C205.428 2.72835 205.49 2.68125 205.532 2.618C205.577 2.54814 205.6 2.46611 205.597 2.38297C205.601 2.29046 205.571 2.19974 205.512 2.12882C205.45 2.06093 205.366 2.01752 205.275 2.00653C205.224 2.00653 205.072 1.99506 204.815 1.99506H204.323L204.318 2.78998Z" fill="#333F47"/>
</g>
<defs>
<linearGradient id="paint0_linear_1_2" x1="-4.41334" y1="29.3718" x2="37.6636" y2="1.54124" gradientUnits="userSpaceOnUse">
<stop stop-color="#1837F6"/>
<stop offset="0.97" stop-color="#FFC60B"/>
</linearGradient>
<linearGradient id="paint1_linear_1_2" x1="1.87159" y1="38.8748" x2="43.9485" y2="11.0462" gradientUnits="userSpaceOnUse">
<stop stop-color="#1837F6"/>
<stop offset="0.97" stop-color="#FFC60B"/>
</linearGradient>
<linearGradient id="paint2_linear_1_2" x1="9.45878" y1="50.1603" x2="51.5357" y2="22.3317" gradientUnits="userSpaceOnUse">
<stop stop-color="#1837F6"/>
<stop offset="0.97" stop-color="#FFC60B"/>
</linearGradient>
<clipPath id="clip0_1_2">
<rect width="208" height="34" fill="white"/>
</clipPath>
</defs>
</svg>
